<svg width="24" height="24" viewBox="0 0 24 24" fill="none" xmlns="http://www.w3.org/2000/svg">
<path d="M9.65339 20.8647C9.65321 20.7165 9.58741 20.576 9.4737 20.4809C9.35908 20.3872 9.20948 20.3477 9.06355 20.3725C7.47273 20.6674 5.45515 20.6714 4.86921 19.0258C4.5088 18.1463 3.93122 17.3725 3.1905 16.7768C3.03718 16.6982 2.899 16.5931 2.7823 16.4663C2.74287 16.2254 2.53517 16.0483 2.29109 16.0473H2.28907C2.01374 16.0473 1.79017 16.27 1.78907 16.5454C1.78614 17.1157 2.50001 17.5424 2.71095 17.6548C3.24098 18.1308 3.65827 18.719 3.93269 19.3765C4.28132 20.356 5.34382 21.8716 8.65534 21.4488C8.65827 21.813 8.66316 22.0015 8.66706 22.145L8.67195 22.44C8.67195 22.7161 8.89582 22.94 9.17195 22.94C9.44807 22.94 9.67195 22.7161 9.67195 22.44L9.66706 22.1176C9.6612 21.9165 9.65339 21.6265 9.65339 20.8647ZM20.921 5.22311C20.8907 5.18502 20.8585 5.14499 20.8253 5.10495C20.8924 4.89358 20.9452 4.67794 20.9835 4.4595C21.1383 3.38632 21.001 2.29123 20.586 1.28946C20.5313 1.15182 20.4182 1.04556 20.2774 0.999478C20.1358 0.952603 18.8438 0.604947 16.1475 2.38131C13.8886 1.8071 11.5218 1.8071 9.26277 2.38131C6.56745 0.625455 5.28327 0.954556 5.1407 0.996548C4.9972 1.04184 4.88148 1.14895 4.82527 1.28854C4.40272 2.30545 4.26631 3.41848 4.43073 4.50729C4.469 4.70694 4.51759 4.90445 4.57624 5.09909C4.54109 5.14212 4.50788 5.18502 4.47663 5.22702C3.63007 6.30105 3.17964 7.63412 3.20124 9.00149C3.1988 9.31161 3.21314 9.62161 3.24421 9.9302C3.58405 14.5943 6.59284 15.8921 9.19154 16.3355C9.02229 16.6389 8.89576 16.9642 8.8155 17.3023C8.7497 17.5703 8.91364 17.841 9.18171 17.9068C9.44978 17.9726 9.72041 17.8086 9.7862 17.5406C9.87873 17.0809 10.111 16.661 10.4512 16.3384C10.6592 16.1564 10.6804 15.8402 10.4984 15.6321C10.4164 15.5384 10.3024 15.4786 10.1787 15.4644C7.42194 15.1519 4.56062 14.2408 4.24024 9.83938C4.21198 9.561 4.19898 9.28128 4.20124 9.00149C4.18238 7.85373 4.56043 6.73465 5.27155 5.83346C5.34675 5.7319 5.43073 5.63913 5.51374 5.54733C5.64051 5.40744 5.67793 5.2081 5.61042 5.0317C5.52509 4.80618 5.46003 4.57351 5.41609 4.33639C5.29633 3.5325 5.37617 2.71151 5.64851 1.94577C6.83607 2.11111 7.95759 2.59164 8.89649 3.33737C9.01771 3.41916 9.16883 3.44345 9.30958 3.40377C11.534 2.80026 13.8791 2.80026 16.1035 3.40377C16.2451 3.44333 16.3968 3.41867 16.5185 3.33639C17.4508 2.58297 18.5719 2.09958 19.7598 1.93893C20.0289 2.69314 20.1104 3.50161 19.9971 4.2944C19.9529 4.54635 19.8839 4.79336 19.791 5.0317C19.7235 5.2081 19.7609 5.40738 19.8877 5.54733C19.9756 5.64401 20.0635 5.75241 20.1406 5.84909C20.8534 6.74331 21.2319 7.85812 21.211 9.00149C21.2133 9.2875 21.1993 9.57345 21.169 9.85794C20.8516 14.2388 17.9796 15.1499 15.212 15.4644C14.9374 15.4959 14.7403 15.7441 14.7719 16.0188C14.7861 16.1424 14.8458 16.2564 14.9395 16.3383C15.2842 16.6633 15.5151 17.0907 15.5978 17.5571C15.683 17.8864 15.7227 18.2259 15.7159 18.5659V21.0249C15.7052 21.7007 15.7052 22.2075 15.7052 22.4399C15.7056 22.716 15.9298 22.9396 16.2059 22.9392C16.4815 22.9388 16.7048 22.7155 16.7052 22.4399C16.7052 22.2094 16.7052 21.7085 16.7159 21.0327V18.5659C16.7238 18.1424 16.6735 17.7199 16.5665 17.31C16.4913 16.9693 16.3677 16.6411 16.1993 16.3354C18.8077 15.893 21.8282 14.5962 22.1652 9.95065C22.1983 9.63534 22.2136 9.31845 22.2111 9.00143C22.2338 7.63022 21.7776 6.29403 20.921 5.22311Z" fill="black"/>
</svg>
