<svg width="24" height="24" viewBox="0 0 24 24" fill="none" xmlns="http://www.w3.org/2000/svg">
<path d="M7.50169 9.00062C7.50145 9.00062 7.50187 9.00062 7.50169 9.00062H3.50108C3.22508 9.00043 3.00126 9.22407 3.00108 9.50001C3.00108 9.49982 3.00108 9.50025 3.00108 9.50001V21.5006C3.0009 21.7766 3.22453 22.0004 3.50047 22.0006C3.50029 22.0006 3.50071 22.0006 3.50047 22.0006H7.50108C7.77708 22.0008 8.0009 21.7772 8.00108 21.5012C8.00108 21.501 8.00108 21.5013 8.00108 21.5012V9.50062C8.00126 9.22462 7.77763 9.0008 7.50169 9.00062ZM7.00108 21.0006H4.00108V10.0006H7.00108V21.0006ZM18.0011 9.00062C16.9162 9.00068 15.8617 9.35871 15.0011 10.0192V9.50062C15.0013 9.22462 14.7776 9.0008 14.5017 9.00062C14.5014 9.00062 14.5019 9.00062 14.5017 9.00062H10.5011C10.2251 9.00043 10.0013 9.22407 10.0011 9.50001C10.0011 9.49982 10.0011 9.50025 10.0011 9.50001V21.5006C10.0009 21.7766 10.2245 22.0004 10.5005 22.0006C10.5003 22.0006 10.5007 22.0006 10.5005 22.0006H14.5011C14.7771 22.0008 15.0009 21.7772 15.0011 21.5012C15.0011 21.501 15.0011 21.5013 15.0011 21.5012V16.0006C15.0011 15.1722 15.6727 14.5006 16.5011 14.5006C17.3295 14.5006 18.0011 15.1722 18.0011 16.0006V21.5006C18.0009 21.7766 18.2245 22.0004 18.5005 22.0006C18.5003 22.0006 18.5007 22.0006 18.5005 22.0006H22.5011C22.7771 22.0008 23.0009 21.7772 23.0011 21.5012C23.0011 21.501 23.0011 21.5013 23.0011 21.5012V14.0006C22.9978 11.2405 20.7612 9.00385 18.0011 9.00062ZM22.0011 21.0006H19.0011V16.0006C19.0011 14.6199 17.8818 13.5006 16.5011 13.5006C15.1203 13.5006 14.0011 14.6199 14.0011 16.0006V21.0006H11.0011V10.0006H14.0011V11.2037C14.0011 11.4162 14.1355 11.6054 14.3361 11.6754C14.5362 11.7476 14.7601 11.6834 14.8918 11.5162C16.2543 9.78943 18.7587 9.49421 20.4855 10.8568C21.4474 11.6159 22.0064 12.7753 22.0011 14.0006V21.0006ZM5.86906 2.00245C5.75145 1.99421 5.63341 1.9936 5.51573 2.00062C4.00645 1.89753 2.69938 3.03748 2.5963 4.54676C2.59215 4.60749 2.59007 4.66828 2.58995 4.72913C2.57695 6.22559 3.77952 7.44922 5.27598 7.46223C5.33708 7.46277 5.39811 7.46119 5.45909 7.45759H5.48741C6.99382 7.56299 8.3004 6.42725 8.40581 4.92084C8.51121 3.41443 7.37547 2.10786 5.86906 2.00245ZM5.83452 6.46046C5.71904 6.47108 5.6027 6.47016 5.48741 6.45759H5.45909C4.50297 6.53107 3.66838 5.81562 3.59489 4.8595C3.52141 3.90345 4.23686 3.06879 5.19298 2.99531C5.30052 2.98707 5.40855 2.98884 5.51573 3.00062C6.47111 2.9126 7.317 3.61573 7.40507 4.57111C7.49309 5.52656 6.78996 6.37244 5.83452 6.46046Z" fill="black"/>
</svg>
