<svg width="24" height="24" viewBox="0 0 24 24" fill="none" xmlns="http://www.w3.org/2000/svg">
<path d="M22.4997 3.58792C22.4999 3.31174 22.2762 3.08768 22.0001 3.08743C21.9102 3.08737 21.8221 3.11148 21.7448 3.15726C21.041 3.57675 20.2764 3.8848 19.4782 4.07034C18.6066 3.2377 17.4463 2.77499 16.2409 2.77933C13.632 2.78256 11.518 4.897 11.5153 7.50589C11.5153 7.64066 11.5212 7.77737 11.5339 7.91507C8.51098 7.5936 5.73742 6.09103 3.81708 3.73441C3.64172 3.52048 3.32611 3.48923 3.11218 3.66458C3.06543 3.70291 3.026 3.74942 2.99579 3.80179C2.5813 4.52542 2.36346 5.34488 2.36395 6.1788C2.36261 7.09415 2.62726 7.99014 3.12567 8.75784C3.10614 8.7471 3.08569 8.73636 3.0661 8.72464C2.90649 8.64676 2.71765 8.65866 2.56903 8.75589C2.41437 8.85629 2.32129 9.02847 2.32196 9.21292C2.31781 9.33115 2.32501 9.44955 2.34344 9.56638C2.43921 10.9018 3.10083 12.1327 4.1618 12.9492C4.06921 12.9762 3.98663 13.0298 3.9245 13.1035C3.81122 13.235 3.77423 13.4157 3.82684 13.5811C4.29565 15.0428 5.4483 16.1837 6.91467 16.6377C5.43933 17.4637 3.74011 17.8008 2.06115 17.6006C1.78692 17.567 1.53735 17.7621 1.50372 18.0363C1.48041 18.2267 1.56799 18.4137 1.72918 18.5176C3.73834 19.8115 6.0777 20.4994 8.46747 20.4991C14.0423 20.5608 18.9614 16.8649 20.4538 11.4932C20.7927 10.3557 20.9657 9.17526 20.9675 7.98831C20.9675 7.86819 20.9675 7.74319 20.9645 7.61624C22.0164 6.54678 22.573 5.08615 22.4997 3.58792ZM20.0759 7.12112C19.9938 7.21811 19.9518 7.34286 19.9587 7.46976C19.9675 7.64651 19.9675 7.8223 19.9675 7.98831C19.9655 9.07962 19.8063 10.165 19.4948 11.211C18.1666 16.1836 13.6134 19.6058 8.46747 19.4991C6.94159 19.4996 5.43109 19.1945 4.02508 18.6016C5.67773 18.4182 7.24554 17.774 8.5495 16.7422C8.76672 16.5714 8.80438 16.2569 8.6336 16.0397C8.54083 15.9216 8.39984 15.8515 8.24969 15.8487C6.94824 15.8277 5.75305 15.1261 5.10028 14C5.52435 14.0013 5.94647 13.9428 6.35418 13.8262C6.61944 13.75 6.7727 13.4733 6.69653 13.208C6.64477 13.0277 6.49634 12.8915 6.31219 12.8555C4.84863 12.5628 3.70355 11.4208 3.40692 9.95804C3.83148 10.0956 4.27337 10.1721 4.71942 10.1856C4.94586 10.2024 5.15234 10.0561 5.21161 9.83694C5.27905 9.62405 5.19739 9.39224 5.01141 9.26858C3.97821 8.58066 3.35937 7.42001 3.36395 6.17874C3.36365 5.76627 3.43091 5.35654 3.56317 4.96585C5.78045 7.36014 8.84521 8.79373 12.1042 8.96097C12.2623 8.97769 12.4175 8.90976 12.5124 8.78226C12.613 8.66153 12.6512 8.50076 12.6159 8.34769C12.5497 8.07193 12.5159 7.78946 12.5153 7.50589C12.5173 5.44894 14.184 3.78183 16.2409 3.77933C17.2692 3.7764 18.2519 4.20383 18.9509 4.95804C19.0688 5.08414 19.2435 5.14029 19.4128 5.10648C20.1225 4.96689 20.8124 4.74124 21.4675 4.4346C21.2973 5.45407 20.8104 6.39401 20.0759 7.12112Z" fill="black"/>
</svg>
