<?xml version="1.0" encoding="utf-8"?>
<!-- Generator: Adobe Illustrator 27.8.1, SVG Export Plug-In . SVG Version: 6.00 Build 0)  -->
<svg version="1.1" id="Layer_2_00000163770097781158380710000012568287083710140834_"
	 xmlns="http://www.w3.org/2000/svg" xmlns:xlink="http://www.w3.org/1999/xlink" x="0px" y="0px" viewBox="0 0 428.8 84.4"
	 style="enable-background:new 0 0 428.8 84.4;" xml:space="preserve">
<style type="text/css">
	.st0{fill:#EA362A;}
	.st1{fill:#DF2835;}
	.st2{font-family:'Impact';}
	.st3{font-size:33px;}
	.st4{fill:#FFFFFF;}
	.st5{fill:#07A04A;}
	.st6{letter-spacing:-2;}
	.st7{fill:#ED1C24;}
</style>
<g id="Layer_1-2">
	<g>
		<path class="st0" d="M0,44.5C21.4-41,65.1,24.3,27.9,17.3c-8,2-0.2,14.3-1.5,20.4c4.1,2.7,13.3-4.4,19.2,1.7
			c11.7-14,34.4-1,25.4-1.8c-9.9-5.5-28.2-2.8-19.6,10.1c-11-11.2-17.9-12.2-29,0.2c-5.3,1.4,4.3-5.7,1.8-10
			C13.4-5.5,49.3,32,37.2,4.7C17.1-10.4-3,44.2,5.3,56.4c14,15.4,33.3,9.5,50.5,12.5c6.1,3.6,12.7,3.4,19.5,1.5c0,0.7,0,1.4,0,2.1
			c-8.4,2.9-16.1,1.5-23.6-3.3C33.7,72.5-0.5,68.5,0,45.9V44.5z"/>
		<path class="st0" d="M16.4,53.1c5.3,4.1,12.2,6.8,17.9,9.3C29.7,64.9,16.5,57.9,16.4,53.1z"/>
		<path class="st0" d="M75.4,63c-0.1,4.3-13.7,0.7-13.4-3.5C65.7,59.9,70.3,64.4,75.4,63z"/>
		<path class="st0" d="M46.5,13.2c3.1,3.7,5.4,9.2,7.1,13.2C49.9,24.3,49.1,17.2,46.5,13.2z"/>
		<path class="st0" d="M38.8,63.3c-9.7-0.6,9.8-4.9,4.3-0.5C41.7,62.9,40.3,63.8,38.8,63.3z"/>
		<path class="st0" d="M58.2,23.4c-0.4,5.9-2.7-3.4-1.8-4.6C57.8,19.2,58.2,22,58.2,23.4z"/>
		<path class="st0" d="M67.4,23.1c-0.5-1.6,0.3-4.6,1.4-5.2C70,19.7,68.1,21.5,67.4,23.1z"/>
		<path class="st0" d="M69.3,26.6c0.9-1.6,1.3-3.2,3.1-3.6C71.2,24,71.9,26.3,69.3,26.6z"/>
		<path class="st0" d="M63.2,17.9c0.5,1.1,0.4,2.1-0.6,3C61.6,19.5,62.8,18.8,63.2,17.9z"/>
	</g>
	<text transform="matrix(1 0 0 1 80.48 69.64)" class="st1 st2 st3">STRENGTH </text>
	<text transform="matrix(1 0 0 1 219.65 69.64)" class="st4 st2 st3">&amp; </text>
	<text transform="matrix(1 0 0 1 244.48 69.64)" class="st5 st2 st3">HEA</text>
	<text transform="matrix(1 0 0 1 293.27 69.64)" class="st5 st2 st3 st6">L</text>
	<text transform="matrix(1 0 0 1 303.46 69.64)" class="st5 st2 st3">TH  </text>
	<text transform="matrix(1 0 0 1 348.62 69.64)" class="st7 st2 st3">2</text>
	<text transform="matrix(1 0 0 1 364.52 69.64)" class="st7 st2 st3">4</text>
	<text transform="matrix(1 0 0 1 381.01 69.64)" class="st5 st2 st3"> / 7</text>
</g>
</svg>
