<svg width="74" height="80" viewBox="0 0 74 80" fill="none" xmlns="http://www.w3.org/2000/svg">
<g clip-path="url(#clip0_76_427)">
<path d="M57.2628 18.5084L46.76 7.29271C46.4162 6.92256 46.0072 6.62876 45.5565 6.42827C45.1059 6.22777 44.6225 6.12455 44.1343 6.12455C43.6461 6.12455 43.1627 6.22777 42.7121 6.42827C42.2614 6.62876 41.8524 6.92256 41.5086 7.29271C40.8198 8.03264 40.4332 9.03357 40.4332 10.0769C40.4332 11.1202 40.8198 12.1211 41.5086 12.8611L49.3487 21.2333L19.3935 53.2218L11.5534 44.8495C10.8605 44.114 9.92322 43.7011 8.94622 43.7011C7.96921 43.7011 7.0319 44.114 6.339 44.8495C5.99238 45.2166 5.71726 45.6534 5.52951 46.1347C5.34176 46.6159 5.24509 47.1321 5.24509 47.6534C5.24509 48.1748 5.34176 48.6909 5.52951 49.1722C5.71726 49.6534 5.99238 50.0902 6.339 50.4573L16.7309 61.5546L27.1227 72.6518C27.4652 73.0249 27.8737 73.3218 28.3244 73.5252C28.7751 73.7285 29.2591 73.8344 29.7484 73.8365C30.483 73.8411 31.2022 73.612 31.8143 73.1783C32.4264 72.7447 32.9037 72.1262 33.1854 71.4018C33.4671 70.6773 33.5403 69.8797 33.3959 69.1106C33.2514 68.3415 32.8957 67.6358 32.3741 67.0834L24.645 58.8296L54.6001 26.8412L62.4403 35.2135C62.7851 35.5791 63.1939 35.8686 63.6435 36.0655C64.0931 36.2624 64.5746 36.3628 65.0605 36.3609C65.5465 36.3591 66.0273 36.2551 66.4756 36.0548C66.9238 35.8545 67.3308 35.5619 67.6732 35.1937C68.0156 34.8255 68.2867 34.3889 68.471 33.9088C68.6554 33.4287 68.7494 32.9145 68.7477 32.3956C68.746 31.8767 68.6486 31.3632 68.461 30.8845C68.2735 30.4058 67.9995 29.9712 67.6547 29.6056L57.2628 18.5084ZM6.339 61.594C5.64263 60.8504 4.69813 60.4326 3.7133 60.4326C2.72847 60.4326 1.78398 60.8504 1.0876 61.594C0.391222 62.3377 7.33755e-09 63.3463 0 64.398C-7.33755e-09 65.4497 0.391222 66.4583 1.0876 67.2019L11.5534 78.3781C11.899 78.7441 12.3088 79.0337 12.7594 79.2302C13.21 79.4268 13.6924 79.5264 14.1791 79.5234C14.6658 79.5264 15.1483 79.4268 15.5989 79.2302C16.0495 79.0337 16.4593 78.7441 16.8048 78.3781C17.1515 78.011 17.4266 77.5742 17.6143 77.0929C17.8021 76.6117 17.8987 76.0955 17.8987 75.5742C17.8987 75.0528 17.8021 74.5367 17.6143 74.0554C17.4266 73.5742 17.1515 73.1374 16.8048 72.7703L6.339 61.594ZM72.9061 12.8611L62.4403 1.68486C62.0954 1.31664 61.6861 1.02456 61.2356 0.825281C60.7851 0.626004 60.3022 0.523437 59.8146 0.523438C59.3269 0.523438 58.8441 0.626004 58.3935 0.825281C57.943 1.02456 57.5337 1.31664 57.1889 1.68486C56.844 2.05308 56.5705 2.49021 56.3839 2.97131C56.1973 3.45241 56.1013 3.96805 56.1013 4.48878C56.1013 5.00952 56.1973 5.52516 56.3839 6.00626C56.5705 6.48736 56.844 6.92449 57.1889 7.29271L67.6547 18.4689C67.9985 18.8391 68.4075 19.1329 68.8582 19.3334C69.3088 19.5339 69.7922 19.6371 70.2804 19.6371C70.7686 19.6371 71.252 19.5339 71.7026 19.3334C72.1533 19.1329 72.5623 18.8391 72.9061 18.4689C73.2527 18.1018 73.5278 17.665 73.7156 17.1838C73.9033 16.7025 74 16.1863 74 15.665C74 15.1436 73.9033 14.6275 73.7156 14.1462C73.5278 13.665 73.2527 13.2282 72.9061 12.8611Z" fill="white"/>
</g>
<defs>
<clipPath id="clip0_76_427">
<rect width="74" height="79" fill="white" transform="translate(0 0.523438)"/>
</clipPath>
</defs>
</svg>
