<svg width="75" height="75" viewBox="0 0 75 75" fill="none" xmlns="http://www.w3.org/2000/svg">
<path d="M55.9307 0.592773C38.7472 0.592773 24.52 12.4867 20.4551 28.4691H2.80961L0.5 37.7613H19.0693C19.0693 41.0135 19.716 44.0799 20.5474 47.0534H2.34769L0.592385 56.3455H24.2428C30.7097 67.4031 42.4426 74.9298 56.0231 74.9298C62.7672 74.9298 69.0493 72.9784 74.5 69.7262V58.3898C69.6036 62.85 63.2291 65.6376 56.0231 65.6376C47.8009 65.6376 40.5949 62.0137 35.5137 56.3455H56.0231L57.5012 47.0534H30.063C29.0468 44.0799 28.3077 41.1064 28.3077 37.7613H59.1642L60.6423 28.4691H30.063C33.8508 17.6903 44.0131 9.8849 56.0231 9.8849C62.1205 9.8849 67.6636 11.8362 72.1904 15.0885L73.6685 5.23883C68.4026 2.35828 62.49 0.592773 56.0231 0.592773H55.9307Z" fill="white"/>
</svg>
