<svg width="74" height="77" viewBox="0 0 74 77" fill="none" xmlns="http://www.w3.org/2000/svg">
<path d="M21.9085 47.9164C23.1324 47.9164 24.3061 47.4104 25.1715 46.5095C26.0369 45.6087 26.5231 44.387 26.5231 43.113C26.5381 42.9533 26.5381 42.7924 26.5231 42.6327L35.1063 33.6984H35.8139H36.5214L41.4744 38.8541C41.4744 38.8541 41.4744 39.0142 41.4744 39.1102C41.4744 40.3842 41.9606 41.6059 42.826 42.5067C43.6914 43.4075 44.8652 43.9136 46.089 43.9136C47.3129 43.9136 48.4867 43.4075 49.3521 42.5067C50.2175 41.6059 50.7037 40.3842 50.7037 39.1102V38.8541L61.9018 27.1018C62.8144 27.1018 63.7066 26.8201 64.4655 26.2923C65.2244 25.7645 65.8158 25.0143 66.1651 24.1366C66.5144 23.2589 66.6058 22.2931 66.4277 21.3614C66.2496 20.4296 65.8101 19.5737 65.1648 18.9019C64.5194 18.2302 63.6972 17.7727 62.802 17.5874C61.9069 17.402 60.979 17.4972 60.1358 17.8607C59.2926 18.2243 58.5719 18.8399 58.0649 19.6298C57.5578 20.4197 57.2872 21.3484 57.2872 22.2984C57.2721 22.4582 57.2721 22.619 57.2872 22.7788L46.1813 34.3389H45.6891L40.3669 28.7029C40.3669 27.429 39.8808 26.2072 39.0153 25.3064C38.1499 24.4056 36.9762 23.8996 35.7523 23.8996C34.5285 23.8996 33.3547 24.4056 32.4893 25.3064C31.6239 26.2072 31.1377 27.429 31.1377 28.7029L21.9085 38.3097C20.6846 38.3097 19.5109 38.8157 18.6455 39.7166C17.7801 40.6174 17.2939 41.8391 17.2939 43.113C17.2939 44.387 17.7801 45.6087 18.6455 46.5095C19.5109 47.4104 20.6846 47.9164 21.9085 47.9164ZM63.44 60.7254H11.1411V6.28721C11.1411 5.43792 10.817 4.62341 10.24 4.02288C9.66309 3.42234 8.8806 3.08496 8.06469 3.08496C7.24877 3.08496 6.46628 3.42234 5.88934 4.02288C5.3124 4.62341 4.98828 5.43792 4.98828 6.28721V63.9277C4.98828 64.7769 5.3124 65.5914 5.88934 66.192C6.46628 66.7925 7.24877 67.1299 8.06469 67.1299H63.44C64.2559 67.1299 65.0384 66.7925 65.6153 66.192C66.1922 65.5914 66.5164 64.7769 66.5164 63.9277C66.5164 63.0784 66.1922 62.2639 65.6153 61.6633C65.0384 61.0628 64.2559 60.7254 63.44 60.7254Z" fill="white"/>
</svg>
