<svg width="78" height="75" viewBox="0 0 78 75" fill="none" xmlns="http://www.w3.org/2000/svg">
<g clip-path="url(#clip0_303_14629)">
<path d="M51.375 0C46.6575 0 42.5875 3.25631 40.09 8.18729C44.2525 13.2113 46.75 20.0961 46.75 28.0042C46.75 30.7023 46.4725 33.1213 45.9175 35.5403C47.675 36.5637 49.4325 37.308 51.375 37.308C59.0525 37.308 65.25 28.9346 65.25 18.7005C65.25 8.4664 59.0525 0.0930374 51.375 0.0930374V0ZM23.625 9.30374C15.9475 9.30374 9.75 17.6771 9.75 27.9112C9.75 38.1453 15.9475 46.5187 23.625 46.5187C31.3025 46.5187 37.5 38.1453 37.5 27.9112C37.5 17.6771 31.3025 9.30374 23.625 9.30374ZM67.5625 38.7035C63.585 43.4485 58.1275 46.3326 51.93 46.5187C54.4275 50.0541 56 54.3338 56 58.9857V65.1262H74.5V49.682C74.5 44.844 71.6325 40.6573 67.5625 38.6105V38.7035ZM7.4375 48.0073C3.3675 50.0541 0.5 54.2408 0.5 59.0787V74.5229H46.75V59.0787C46.75 54.2408 43.8825 50.0541 39.8125 48.0073C35.65 52.9383 30.0075 55.8224 23.625 55.8224C17.2425 55.8224 11.6 52.8452 7.4375 48.0073Z" fill="white"/>
</g>
<defs>
<clipPath id="clip0_303_14629">
<rect width="77" height="74.5229" fill="white" transform="translate(0.5)"/>
</clipPath>
</defs>
</svg>
