<svg width="15" height="12" viewBox="0 0 15 12" fill="none" xmlns="http://www.w3.org/2000/svg">
<path id="Infolaunch" fill-rule="evenodd" clip-rule="evenodd" d="M14.5613 0.57699C14.2804 0.222673 13.8994 0.0236282 13.5021 0.0236282C13.1049 0.0236282 12.7239 0.222673 12.4429 0.57699L7.50937 6.8007L2.57582 0.57699C2.43762 0.396477 2.2723 0.252494 2.08952 0.153442C1.90673 0.0543896 1.71014 0.00225205 1.51121 7.13602e-05C1.31228 -0.00210933 1.115 0.04571 0.930878 0.14074C0.746756 0.23577 0.579481 0.376107 0.438812 0.553563C0.298142 0.731018 0.186897 0.942039 0.111567 1.17431C0.0362363 1.40658 -0.00167157 1.65545 5.70628e-05 1.90641C0.0017857 2.15736 0.0431152 2.40536 0.121634 2.63594C0.200153 2.86653 0.314289 3.07508 0.457382 3.24942L6.45015 10.8094C6.7311 11.1637 7.1121 11.3627 7.50937 11.3627C7.90663 11.3627 8.28763 11.1637 8.56859 10.8094L14.5613 3.24942C14.8422 2.895 15 2.41436 15 1.91321C15 1.41205 14.8422 0.931414 14.5613 0.57699Z" fill="white"/>
</svg>
