<svg width="74" height="76" viewBox="0 0 74 76" fill="none" xmlns="http://www.w3.org/2000/svg">
<path d="M37 0.761719L35.2425 1.60547L2.8675 15.3867L0 16.6055V19.5117C0 35.0742 6.1975 48.7617 13.5975 58.793C17.2975 63.7617 21.275 67.8867 25.16 70.793C29.045 73.6992 32.8375 75.7617 37 75.7617C41.255 75.7617 44.955 73.6992 48.84 70.793C52.725 67.8867 56.7025 63.7617 60.4025 58.793C67.8025 48.7617 74 35.0742 74 19.5117V16.6055L71.1325 15.3867L38.7575 1.60547L37 0.761719ZM37 10.9805V66.3867C36.63 66.3867 33.9475 65.7305 30.895 63.4805C27.8425 61.2305 24.3275 57.5742 21.09 53.2617C15.17 45.293 10.545 34.2305 9.805 22.5117L37 11.0742V10.9805Z" fill="white"/>
</svg>
