<svg width="74" height="75" viewBox="0 0 74 75" fill="none" xmlns="http://www.w3.org/2000/svg">
<path d="M67.832 6.69043H6.16536C5.34761 6.69043 4.56336 7.01528 3.98512 7.59352C3.40688 8.17175 3.08203 8.95601 3.08203 9.77376V22.1071C3.08739 24.0155 3.68291 25.8755 4.78692 27.4322C5.89094 28.9889 7.44942 30.166 9.2487 30.8021V65.2738C9.2487 66.0915 9.57355 66.8758 10.1518 67.454C10.73 68.0323 11.5143 68.3571 12.332 68.3571H61.6654C62.4831 68.3571 63.2674 68.0323 63.8456 67.454C64.4239 66.8758 64.7487 66.0915 64.7487 65.2738V30.8021C66.548 30.166 68.1065 28.9889 69.2105 27.4322C70.3145 25.8755 70.91 24.0155 70.9154 22.1071V9.77376C70.9154 8.95601 70.5905 8.17175 70.0123 7.59352C69.434 7.01528 68.6498 6.69043 67.832 6.69043ZM46.2487 12.8571H52.4154V22.1071C52.4154 22.9248 52.0905 23.7091 51.5123 24.2873C50.934 24.8656 50.1498 25.1904 49.332 25.1904C48.5143 25.1904 47.73 24.8656 47.1518 24.2873C46.5736 23.7091 46.2487 22.9248 46.2487 22.1071V12.8571ZM33.9154 12.8571H40.082V22.1071C40.082 22.9248 39.7572 23.7091 39.1789 24.2873C38.6007 24.8656 37.8165 25.1904 36.9987 25.1904C36.181 25.1904 35.3967 24.8656 34.8185 24.2873C34.2402 23.7091 33.9154 22.9248 33.9154 22.1071V12.8571ZM21.582 12.8571H27.7487V22.1071C27.7487 22.9248 27.4238 23.7091 26.8456 24.2873C26.2674 24.8656 25.4831 25.1904 24.6654 25.1904C23.8476 25.1904 23.0634 24.8656 22.4851 24.2873C21.9069 23.7091 21.582 22.9248 21.582 22.1071V12.8571ZM12.332 25.1904C11.5143 25.1904 10.73 24.8656 10.1518 24.2873C9.57355 23.7091 9.2487 22.9248 9.2487 22.1071V12.8571H15.4154V22.1071C15.4154 22.9248 15.0905 23.7091 14.5123 24.2873C13.934 24.8656 13.1498 25.1904 12.332 25.1904ZM43.1654 62.1904H30.832V49.8571C30.832 48.2216 31.4817 46.6531 32.6382 45.4966C33.7947 44.3401 35.3632 43.6904 36.9987 43.6904C38.6342 43.6904 40.2027 44.3401 41.3592 45.4966C42.5157 46.6531 43.1654 48.2216 43.1654 49.8571V62.1904ZM58.582 62.1904H49.332V49.8571C49.332 46.5861 48.0326 43.4491 45.7197 41.1361C43.4067 38.8232 40.2697 37.5238 36.9987 37.5238C33.7277 37.5238 30.5907 38.8232 28.2777 41.1361C25.9648 43.4491 24.6654 46.5861 24.6654 49.8571V62.1904H15.4154V30.8021C16.5487 30.3814 17.5942 29.7541 18.4987 28.9521C20.1946 30.469 22.3901 31.3076 24.6654 31.3076C26.9407 31.3076 29.1361 30.469 30.832 28.9521C32.5279 30.469 34.7234 31.3076 36.9987 31.3076C39.274 31.3076 41.4695 30.469 43.1654 28.9521C44.8613 30.469 47.0567 31.3076 49.332 31.3076C51.6073 31.3076 53.8028 30.469 55.4987 28.9521C56.4032 29.7541 57.4487 30.3814 58.582 30.8021V62.1904ZM64.7487 22.1071C64.7487 22.9248 64.4239 23.7091 63.8456 24.2873C63.2674 24.8656 62.4831 25.1904 61.6654 25.1904C60.8476 25.1904 60.0634 24.8656 59.4851 24.2873C58.9069 23.7091 58.582 22.9248 58.582 22.1071V12.8571H64.7487V22.1071Z" fill="white"/>
</svg>
