<svg width="74" height="75" viewBox="0 0 74 75" fill="none" xmlns="http://www.w3.org/2000/svg">
<path d="M37 0.546875C16.65 0.546875 0 17.2936 0 37.7618C0 58.2301 16.65 74.9768 37 74.9768C57.35 74.9768 74 58.2301 74 37.7618C74 17.2936 57.35 0.546875 37 0.546875ZM37 9.85061C52.355 9.85061 64.75 22.3176 64.75 37.7618C64.75 53.206 52.355 65.673 37 65.673C21.645 65.673 9.25 53.206 9.25 37.7618C9.25 22.3176 21.645 9.85061 37 9.85061ZM32.375 19.1544V39.8087L33.855 41.0181L38.48 45.67L41.625 49.2054L48.285 42.5067L44.77 39.3435L41.625 36.1802V19.3404H32.375V19.1544Z" fill="white"/>
</svg>
